solid OpenSCAD_Model
  facet normal -0.743143 -0.669133 0
    outer loop
      vertex -2.67652 -2.97258 0
      vertex -3.23607 -2.35114 2
      vertex -3.23607 -2.35114 0
    endloop
  endfacet
  facet normal -0.743143 -0.669133 0
    outer loop
      vertex -3.23607 -2.35114 2
      vertex -2.67652 -2.97258 0
      vertex -2.67652 -2.97258 2
    endloop
  endfacet
  facet normal 0.951056 0.309017 0
    outer loop
      vertex 3.91259 0.831646 2
      vertex 3.65418 1.62695 0
      vertex 3.65418 1.62695 2
    endloop
  endfacet
  facet normal 0.951056 0.309017 0
    outer loop
      vertex 3.65418 1.62695 0
      vertex 3.91259 0.831646 2
      vertex 3.91259 0.831646 0
    endloop
  endfacet
  facet normal 0.994522 0.104529 0
    outer loop
      vertex 4 0 2
      vertex 3.91259 0.831646 0
      vertex 3.91259 0.831646 2
    endloop
  endfacet
  facet normal 0.994522 0.104529 0
    outer loop
      vertex 3.91259 0.831646 0
      vertex 4 0 2
      vertex 4 0 0
    endloop
  endfacet
  facet normal 0.866026 0.499999 0
    outer loop
      vertex 3.65418 1.62695 2
      vertex 3.23607 2.35114 0
      vertex 3.23607 2.35114 2
    endloop
  endfacet
  facet normal 0.866026 0.499999 0
    outer loop
      vertex 3.23607 2.35114 0
      vertex 3.65418 1.62695 2
      vertex 3.65418 1.62695 0
    endloop
  endfacet
  facet normal 0.587785 0.809017 -0
    outer loop
      vertex 2.67652 2.97258 0
      vertex 2 3.4641 2
      vertex 2.67652 2.97258 2
    endloop
  endfacet
  facet normal 0.587785 0.809017 0
    outer loop
      vertex 2 3.4641 2
      vertex 2.67652 2.97258 0
      vertex 2 3.4641 0
    endloop
  endfacet
  facet normal 0.587785 -0.809017 0
    outer loop
      vertex 2 -3.4641 0
      vertex 2.67652 -2.97258 2
      vertex 2 -3.4641 2
    endloop
  endfacet
  facet normal 0.587785 -0.809017 0
    outer loop
      vertex 2.67652 -2.97258 2
      vertex 2 -3.4641 0
      vertex 2.67652 -2.97258 0
    endloop
  endfacet
  facet normal -0.406743 -0.913543 0
    outer loop
      vertex -2 -3.4641 0
      vertex -1.23607 -3.80423 2
      vertex -2 -3.4641 2
    endloop
  endfacet
  facet normal -0.406743 -0.913543 -0
    outer loop
      vertex -1.23607 -3.80423 2
      vertex -2 -3.4641 0
      vertex -1.23607 -3.80423 0
    endloop
  endfacet
  facet normal 0.994522 -0.104529 0
    outer loop
      vertex 3.91259 -0.831646 2
      vertex 4 0 0
      vertex 4 0 2
    endloop
  endfacet
  facet normal 0.994522 -0.104529 0
    outer loop
      vertex 4 0 0
      vertex 3.91259 -0.831646 2
      vertex 3.91259 -0.831646 0
    endloop
  endfacet
  facet normal 0.743143 0.669133 0
    outer loop
      vertex 3.23607 2.35114 2
      vertex 2.67652 2.97258 0
      vertex 2.67652 2.97258 2
    endloop
  endfacet
  facet normal 0.743143 0.669133 0
    outer loop
      vertex 2.67652 2.97258 0
      vertex 3.23607 2.35114 2
      vertex 3.23607 2.35114 0
    endloop
  endfacet
  facet normal -0.207909 -0.978148 0
    outer loop
      vertex -1.23607 -3.80423 0
      vertex -0.418114 -3.97809 2
      vertex -1.23607 -3.80423 2
    endloop
  endfacet
  facet normal -0.207909 -0.978148 -0
    outer loop
      vertex -0.418114 -3.97809 2
      vertex -1.23607 -3.80423 0
      vertex -0.418114 -3.97809 0
    endloop
  endfacet
  facet normal -0.207909 0.978148 0
    outer loop
      vertex -0.418114 3.97809 0
      vertex -1.23607 3.80423 2
      vertex -0.418114 3.97809 2
    endloop
  endfacet
  facet normal -0.207909 0.978148 0
    outer loop
      vertex -1.23607 3.80423 2
      vertex -0.418114 3.97809 0
      vertex -1.23607 3.80423 0
    endloop
  endfacet
  facet normal -0.743143 0.669133 0
    outer loop
      vertex -3.23607 2.35114 0
      vertex -2.67652 2.97258 2
      vertex -2.67652 2.97258 0
    endloop
  endfacet
  facet normal -0.743143 0.669133 0
    outer loop
      vertex -2.67652 2.97258 2
      vertex -3.23607 2.35114 0
      vertex -3.23607 2.35114 2
    endloop
  endfacet
  facet normal 0 1 -0
    outer loop
      vertex 0.418114 3.97809 0
      vertex -0.418114 3.97809 2
      vertex 0.418114 3.97809 2
    endloop
  endfacet
  facet normal 0 1 0
    outer loop
      vertex -0.418114 3.97809 2
      vertex 0.418114 3.97809 0
      vertex -0.418114 3.97809 0
    endloop
  endfacet
  facet normal 0.951056 -0.309017 0
    outer loop
      vertex 3.65418 -1.62695 2
      vertex 3.91259 -0.831646 0
      vertex 3.91259 -0.831646 2
    endloop
  endfacet
  facet normal 0.951056 -0.309017 0
    outer loop
      vertex 3.91259 -0.831646 0
      vertex 3.65418 -1.62695 2
      vertex 3.65418 -1.62695 0
    endloop
  endfacet
  facet normal 0.406743 -0.913543 0
    outer loop
      vertex 1.23607 -3.80423 0
      vertex 2 -3.4641 2
      vertex 1.23607 -3.80423 2
    endloop
  endfacet
  facet normal 0.406743 -0.913543 0
    outer loop
      vertex 2 -3.4641 2
      vertex 1.23607 -3.80423 0
      vertex 2 -3.4641 0
    endloop
  endfacet
  facet normal -0.587785 -0.809017 0
    outer loop
      vertex -2.67652 -2.97258 0
      vertex -2 -3.4641 2
      vertex -2.67652 -2.97258 2
    endloop
  endfacet
  facet normal -0.587785 -0.809017 -0
    outer loop
      vertex -2 -3.4641 2
      vertex -2.67652 -2.97258 0
      vertex -2 -3.4641 0
    endloop
  endfacet
  facet normal -0.951056 0.309017 0
    outer loop
      vertex -3.91259 0.831646 0
      vertex -3.65418 1.62695 2
      vertex -3.65418 1.62695 0
    endloop
  endfacet
  facet normal -0.951056 0.309017 0
    outer loop
      vertex -3.65418 1.62695 2
      vertex -3.91259 0.831646 0
      vertex -3.91259 0.831646 2
    endloop
  endfacet
  facet normal 0 0 -1
    outer loop
      vertex 1.8 0 0
      vertex 4 0 0
      vertex 3.91259 -0.831646 0
    endloop
  endfacet
  facet normal 0 0 -1
    outer loop
      vertex 1.73325 -0.485634 0
      vertex 3.91259 -0.831646 0
      vertex 3.65418 -1.62695 0
    endloop
  endfacet
  facet normal 0 0 -1
    outer loop
      vertex 4 0 0
      vertex 1.8 0 0
      vertex 3.91259 0.831646 0
    endloop
  endfacet
  facet normal 0 0 -1
    outer loop
      vertex 1.53795 -0.93525 0
      vertex 3.65418 -1.62695 0
      vertex 3.23607 -2.35114 0
    endloop
  endfacet
  facet normal 0 0 -1
    outer loop
      vertex 1.73325 0.485634 0
      vertex 3.91259 0.831646 0
      vertex 1.8 0 0
    endloop
  endfacet
  facet normal 0 0 -1
    outer loop
      vertex 1.22859 -1.3155 0
      vertex 3.23607 -2.35114 0
      vertex 2.67652 -2.97258 0
    endloop
  endfacet
  facet normal -0 0 -1
    outer loop
      vertex 3.91259 0.831646 0
      vertex 1.73325 0.485634 0
      vertex 3.65418 1.62695 0
    endloop
  endfacet
  facet normal 0 0 -1
    outer loop
      vertex 1.22859 -1.3155 0
      vertex 2.67652 -2.97258 0
      vertex 2 -3.4641 0
    endloop
  endfacet
  facet normal 0 0 -1
    outer loop
      vertex 1.53795 0.93525 0
      vertex 3.65418 1.62695 0
      vertex 1.73325 0.485634 0
    endloop
  endfacet
  facet normal -0 0 -1
    outer loop
      vertex 3.65418 1.62695 0
      vertex 1.53795 0.93525 0
      vertex 3.23607 2.35114 0
    endloop
  endfacet
  facet normal 0 0 -1
    outer loop
      vertex 3.91259 -0.831646 0
      vertex 1.73325 -0.485634 0
      vertex 1.8 0 0
    endloop
  endfacet
  facet normal 0 0 -1
    outer loop
      vertex 3.65418 -1.62695 0
      vertex 1.53795 -0.93525 0
      vertex 1.73325 -0.485634 0
    endloop
  endfacet
  facet normal 0 0 -1
    outer loop
      vertex 0.828116 -1.59819 0
      vertex 2 -3.4641 0
      vertex 1.23607 -3.80423 0
    endloop
  endfacet
  facet normal 0 0 -1
    outer loop
      vertex 3.23607 -2.35114 0
      vertex 1.22859 -1.3155 0
      vertex 1.53795 -0.93525 0
    endloop
  endfacet
  facet normal 0 0 -1
    outer loop
      vertex 2 -3.4641 0
      vertex 0.828116 -1.59819 0
      vertex 1.22859 -1.3155 0
    endloop
  endfacet
  facet normal 0 0 -1
    outer loop
      vertex 0.36622 -1.76235 0
      vertex 1.23607 -3.80423 0
      vertex 0.418114 -3.97809 0
    endloop
  endfacet
  facet normal 0 0 -1
    outer loop
      vertex 1.23607 -3.80423 0
      vertex 0.36622 -1.76235 0
      vertex 0.828116 -1.59819 0
    endloop
  endfacet
  facet normal 0 0 -1
    outer loop
      vertex 0.418114 -3.97809 0
      vertex -0.122836 -1.7958 0
      vertex 0.36622 -1.76235 0
    endloop
  endfacet
  facet normal 0 0 -1
    outer loop
      vertex -0.418114 -3.97809 0
      vertex -0.122836 -1.7958 0
      vertex 0.418114 -3.97809 0
    endloop
  endfacet
  facet normal 0 0 -1
    outer loop
      vertex -0.418114 -3.97809 0
      vertex -0.602783 -1.69607 0
      vertex -0.122836 -1.7958 0
    endloop
  endfacet
  facet normal 0 0 -1
    outer loop
      vertex -1.23607 -3.80423 0
      vertex -0.602783 -1.69607 0
      vertex -0.418114 -3.97809 0
    endloop
  endfacet
  facet normal 0 0 -1
    outer loop
      vertex -2 -3.4641 0
      vertex -0.602783 -1.69607 0
      vertex -1.23607 -3.80423 0
    endloop
  endfacet
  facet normal -0 0 -1
    outer loop
      vertex -0.602783 -1.69607 0
      vertex -2 -3.4641 0
      vertex -1.03802 -1.47055 0
    endloop
  endfacet
  facet normal 0 0 -1
    outer loop
      vertex -2.67652 -2.97258 0
      vertex -1.03802 -1.47055 0
      vertex -2 -3.4641 0
    endloop
  endfacet
  facet normal -0 0 -1
    outer loop
      vertex -1.03802 -1.47055 0
      vertex -2.67652 -2.97258 0
      vertex -1.39628 -1.13596 0
    endloop
  endfacet
  facet normal -0 0 -1
    outer loop
      vertex -1.39628 -1.13596 0
      vertex -3.23607 -2.35114 0
      vertex -1.65098 -0.717121 0
    endloop
  endfacet
  facet normal 0 0 -1
    outer loop
      vertex -3.23607 -2.35114 0
      vertex -1.39628 -1.13596 0
      vertex -2.67652 -2.97258 0
    endloop
  endfacet
  facet normal 0 0 -1
    outer loop
      vertex 1.22859 1.3155 0
      vertex 3.23607 2.35114 0
      vertex 1.53795 0.93525 0
    endloop
  endfacet
  facet normal -0 0 -1
    outer loop
      vertex 3.23607 2.35114 0
      vertex 1.22859 1.3155 0
      vertex 2.67652 2.97258 0
    endloop
  endfacet
  facet normal -0 0 -1
    outer loop
      vertex 2.67652 2.97258 0
      vertex 1.22859 1.3155 0
      vertex 2 3.4641 0
    endloop
  endfacet
  facet normal 0 0 -1
    outer loop
      vertex 0.828116 1.59819 0
      vertex 2 3.4641 0
      vertex 1.22859 1.3155 0
    endloop
  endfacet
  facet normal -0 0 -1
    outer loop
      vertex 2 3.4641 0
      vertex 0.828116 1.59819 0
      vertex 1.23607 3.80423 0
    endloop
  endfacet
  facet normal 0 0 -1
    outer loop
      vertex 0.36622 1.76235 0
      vertex 1.23607 3.80423 0
      vertex 0.828116 1.59819 0
    endloop
  endfacet
  facet normal -0 0 -1
    outer loop
      vertex 1.23607 3.80423 0
      vertex 0.36622 1.76235 0
      vertex 0.418114 3.97809 0
    endloop
  endfacet
  facet normal 0 0 -1
    outer loop
      vertex -0.122836 1.7958 0
      vertex 0.418114 3.97809 0
      vertex 0.36622 1.76235 0
    endloop
  endfacet
  facet normal 0 0 -1
    outer loop
      vertex -0.122836 1.7958 0
      vertex -0.418114 3.97809 0
      vertex 0.418114 3.97809 0
    endloop
  endfacet
  facet normal 0 0 -1
    outer loop
      vertex -0.602783 1.69607 0
      vertex -0.418114 3.97809 0
      vertex -0.122836 1.7958 0
    endloop
  endfacet
  facet normal 0 0 -1
    outer loop
      vertex -2 3.4641 0
      vertex -0.602783 1.69607 0
      vertex -1.03802 1.47055 0
    endloop
  endfacet
  facet normal 0 0 -1
    outer loop
      vertex -0.602783 1.69607 0
      vertex -1.23607 3.80423 0
      vertex -0.418114 3.97809 0
    endloop
  endfacet
  facet normal 0 0 -1
    outer loop
      vertex -2.67652 2.97258 0
      vertex -1.03802 1.47055 0
      vertex -1.39628 1.13596 0
    endloop
  endfacet
  facet normal 0 0 -1
    outer loop
      vertex -3.23607 2.35114 0
      vertex -1.39628 1.13596 0
      vertex -1.65098 0.717121 0
    endloop
  endfacet
  facet normal 0 0 -1
    outer loop
      vertex -3.91259 0.831646 0
      vertex -1.65098 0.717121 0
      vertex -1.78323 0.245099 0
    endloop
  endfacet
  facet normal 0 0 -1
    outer loop
      vertex -0.602783 1.69607 0
      vertex -2 3.4641 0
      vertex -1.23607 3.80423 0
    endloop
  endfacet
  facet normal 0 0 -1
    outer loop
      vertex -3.65418 -1.62695 0
      vertex -1.65098 -0.717121 0
      vertex -3.23607 -2.35114 0
    endloop
  endfacet
  facet normal 0 0 -1
    outer loop
      vertex -3.91259 -0.831646 0
      vertex -1.65098 -0.717121 0
      vertex -3.65418 -1.62695 0
    endloop
  endfacet
  facet normal 0 0 -1
    outer loop
      vertex -1.03802 1.47055 0
      vertex -2.67652 2.97258 0
      vertex -2 3.4641 0
    endloop
  endfacet
  facet normal -0 0 -1
    outer loop
      vertex -1.65098 -0.717121 0
      vertex -3.91259 -0.831646 0
      vertex -1.78323 -0.245099 0
    endloop
  endfacet
  facet normal 0 0 -1
    outer loop
      vertex -1.39628 1.13596 0
      vertex -3.23607 2.35114 0
      vertex -2.67652 2.97258 0
    endloop
  endfacet
  facet normal 0 0 -1
    outer loop
      vertex -4 0 0
      vertex -1.78323 -0.245099 0
      vertex -3.91259 -0.831646 0
    endloop
  endfacet
  facet normal 0 0 -1
    outer loop
      vertex -1.65098 0.717121 0
      vertex -3.65418 1.62695 0
      vertex -3.23607 2.35114 0
    endloop
  endfacet
  facet normal 0 0 -1
    outer loop
      vertex -1.78323 -0.245099 0
      vertex -4 0 0
      vertex -1.78323 0.245099 0
    endloop
  endfacet
  facet normal 0 0 -1
    outer loop
      vertex -1.65098 0.717121 0
      vertex -3.91259 0.831646 0
      vertex -3.65418 1.62695 0
    endloop
  endfacet
  facet normal -0 0 -1
    outer loop
      vertex -1.78323 0.245099 0
      vertex -4 0 0
      vertex -3.91259 0.831646 0
    endloop
  endfacet
  facet normal -0.587785 0.809017 0
    outer loop
      vertex -2 3.4641 0
      vertex -2.67652 2.97258 2
      vertex -2 3.4641 2
    endloop
  endfacet
  facet normal -0.587785 0.809017 0
    outer loop
      vertex -2.67652 2.97258 2
      vertex -2 3.4641 0
      vertex -2.67652 2.97258 0
    endloop
  endfacet
  facet normal -0.951056 -0.309017 0
    outer loop
      vertex -3.65418 -1.62695 0
      vertex -3.91259 -0.831646 2
      vertex -3.91259 -0.831646 0
    endloop
  endfacet
  facet normal -0.951056 -0.309017 0
    outer loop
      vertex -3.91259 -0.831646 2
      vertex -3.65418 -1.62695 0
      vertex -3.65418 -1.62695 2
    endloop
  endfacet
  facet normal -0.406743 0.913543 0
    outer loop
      vertex -1.23607 3.80423 0
      vertex -2 3.4641 2
      vertex -1.23607 3.80423 2
    endloop
  endfacet
  facet normal -0.406743 0.913543 0
    outer loop
      vertex -2 3.4641 2
      vertex -1.23607 3.80423 0
      vertex -2 3.4641 0
    endloop
  endfacet
  facet normal 0 0 1
    outer loop
      vertex 1.8 0 2
      vertex 4 0 2
      vertex 3.91259 0.831646 2
    endloop
  endfacet
  facet normal 0 0 1
    outer loop
      vertex 1.73325 0.485634 2
      vertex 3.91259 0.831646 2
      vertex 3.65418 1.62695 2
    endloop
  endfacet
  facet normal 0 0 1
    outer loop
      vertex 4 0 2
      vertex 1.8 0 2
      vertex 3.91259 -0.831646 2
    endloop
  endfacet
  facet normal 0 0 1
    outer loop
      vertex 1.53795 0.93525 2
      vertex 3.65418 1.62695 2
      vertex 3.23607 2.35114 2
    endloop
  endfacet
  facet normal -0 0 1
    outer loop
      vertex 1.73325 -0.485634 2
      vertex 3.91259 -0.831646 2
      vertex 1.8 0 2
    endloop
  endfacet
  facet normal 0 0 1
    outer loop
      vertex 1.22859 1.3155 2
      vertex 3.23607 2.35114 2
      vertex 2.67652 2.97258 2
    endloop
  endfacet
  facet normal 0 0 1
    outer loop
      vertex 3.91259 -0.831646 2
      vertex 1.73325 -0.485634 2
      vertex 3.65418 -1.62695 2
    endloop
  endfacet
  facet normal 0 0 1
    outer loop
      vertex 1.22859 1.3155 2
      vertex 2.67652 2.97258 2
      vertex 2 3.4641 2
    endloop
  endfacet
  facet normal -0 0 1
    outer loop
      vertex 1.53795 -0.93525 2
      vertex 3.65418 -1.62695 2
      vertex 1.73325 -0.485634 2
    endloop
  endfacet
  facet normal 0 0 1
    outer loop
      vertex 3.65418 -1.62695 2
      vertex 1.53795 -0.93525 2
      vertex 3.23607 -2.35114 2
    endloop
  endfacet
  facet normal 0 0 1
    outer loop
      vertex 3.91259 0.831646 2
      vertex 1.73325 0.485634 2
      vertex 1.8 0 2
    endloop
  endfacet
  facet normal 0 0 1
    outer loop
      vertex 3.65418 1.62695 2
      vertex 1.53795 0.93525 2
      vertex 1.73325 0.485634 2
    endloop
  endfacet
  facet normal 0 0 1
    outer loop
      vertex 0.828116 1.59819 2
      vertex 2 3.4641 2
      vertex 1.23607 3.80423 2
    endloop
  endfacet
  facet normal 0 0 1
    outer loop
      vertex 3.23607 2.35114 2
      vertex 1.22859 1.3155 2
      vertex 1.53795 0.93525 2
    endloop
  endfacet
  facet normal 0 0 1
    outer loop
      vertex 2 3.4641 2
      vertex 0.828116 1.59819 2
      vertex 1.22859 1.3155 2
    endloop
  endfacet
  facet normal 0 0 1
    outer loop
      vertex 0.36622 1.76235 2
      vertex 1.23607 3.80423 2
      vertex 0.418114 3.97809 2
    endloop
  endfacet
  facet normal 0 0 1
    outer loop
      vertex 1.23607 3.80423 2
      vertex 0.36622 1.76235 2
      vertex 0.828116 1.59819 2
    endloop
  endfacet
  facet normal 0 0 1
    outer loop
      vertex 0.418114 3.97809 2
      vertex -0.122836 1.7958 2
      vertex 0.36622 1.76235 2
    endloop
  endfacet
  facet normal -0 0 1
    outer loop
      vertex -0.418114 3.97809 2
      vertex -0.122836 1.7958 2
      vertex 0.418114 3.97809 2
    endloop
  endfacet
  facet normal 0 0 1
    outer loop
      vertex -0.418114 3.97809 2
      vertex -0.602783 1.69607 2
      vertex -0.122836 1.7958 2
    endloop
  endfacet
  facet normal -0 0 1
    outer loop
      vertex -1.23607 3.80423 2
      vertex -0.602783 1.69607 2
      vertex -0.418114 3.97809 2
    endloop
  endfacet
  facet normal -0 0 1
    outer loop
      vertex -2 3.4641 2
      vertex -0.602783 1.69607 2
      vertex -1.23607 3.80423 2
    endloop
  endfacet
  facet normal 0 0 1
    outer loop
      vertex -0.602783 1.69607 2
      vertex -2 3.4641 2
      vertex -1.03802 1.47055 2
    endloop
  endfacet
  facet normal -0 0 1
    outer loop
      vertex -2.67652 2.97258 2
      vertex -1.03802 1.47055 2
      vertex -2 3.4641 2
    endloop
  endfacet
  facet normal 0 0 1
    outer loop
      vertex -1.03802 1.47055 2
      vertex -2.67652 2.97258 2
      vertex -1.39628 1.13596 2
    endloop
  endfacet
  facet normal 0 0 1
    outer loop
      vertex -1.39628 1.13596 2
      vertex -3.23607 2.35114 2
      vertex -1.65098 0.717121 2
    endloop
  endfacet
  facet normal -0 0 1
    outer loop
      vertex -3.23607 2.35114 2
      vertex -1.39628 1.13596 2
      vertex -2.67652 2.97258 2
    endloop
  endfacet
  facet normal -0 0 1
    outer loop
      vertex 1.22859 -1.3155 2
      vertex 3.23607 -2.35114 2
      vertex 1.53795 -0.93525 2
    endloop
  endfacet
  facet normal 0 0 1
    outer loop
      vertex 3.23607 -2.35114 2
      vertex 1.22859 -1.3155 2
      vertex 2.67652 -2.97258 2
    endloop
  endfacet
  facet normal 0 0 1
    outer loop
      vertex 2.67652 -2.97258 2
      vertex 1.22859 -1.3155 2
      vertex 2 -3.4641 2
    endloop
  endfacet
  facet normal -0 0 1
    outer loop
      vertex 0.828116 -1.59819 2
      vertex 2 -3.4641 2
      vertex 1.22859 -1.3155 2
    endloop
  endfacet
  facet normal 0 0 1
    outer loop
      vertex 2 -3.4641 2
      vertex 0.828116 -1.59819 2
      vertex 1.23607 -3.80423 2
    endloop
  endfacet
  facet normal -0 0 1
    outer loop
      vertex 0.36622 -1.76235 2
      vertex 1.23607 -3.80423 2
      vertex 0.828116 -1.59819 2
    endloop
  endfacet
  facet normal 0 0 1
    outer loop
      vertex 1.23607 -3.80423 2
      vertex 0.36622 -1.76235 2
      vertex 0.418114 -3.97809 2
    endloop
  endfacet
  facet normal -0 0 1
    outer loop
      vertex -0.122836 -1.7958 2
      vertex 0.418114 -3.97809 2
      vertex 0.36622 -1.76235 2
    endloop
  endfacet
  facet normal 0 0 1
    outer loop
      vertex -0.122836 -1.7958 2
      vertex -0.418114 -3.97809 2
      vertex 0.418114 -3.97809 2
    endloop
  endfacet
  facet normal 0 0 1
    outer loop
      vertex -0.602783 -1.69607 2
      vertex -0.418114 -3.97809 2
      vertex -0.122836 -1.7958 2
    endloop
  endfacet
  facet normal 0 0 1
    outer loop
      vertex -2 -3.4641 2
      vertex -0.602783 -1.69607 2
      vertex -1.03802 -1.47055 2
    endloop
  endfacet
  facet normal 0 0 1
    outer loop
      vertex -0.602783 -1.69607 2
      vertex -1.23607 -3.80423 2
      vertex -0.418114 -3.97809 2
    endloop
  endfacet
  facet normal 0 0 1
    outer loop
      vertex -2.67652 -2.97258 2
      vertex -1.03802 -1.47055 2
      vertex -1.39628 -1.13596 2
    endloop
  endfacet
  facet normal 0 0 1
    outer loop
      vertex -3.23607 -2.35114 2
      vertex -1.39628 -1.13596 2
      vertex -1.65098 -0.717121 2
    endloop
  endfacet
  facet normal 0 0 1
    outer loop
      vertex -3.91259 -0.831646 2
      vertex -1.65098 -0.717121 2
      vertex -1.78323 -0.245099 2
    endloop
  endfacet
  facet normal 0 0 1
    outer loop
      vertex -0.602783 -1.69607 2
      vertex -2 -3.4641 2
      vertex -1.23607 -3.80423 2
    endloop
  endfacet
  facet normal -0 0 1
    outer loop
      vertex -3.65418 1.62695 2
      vertex -1.65098 0.717121 2
      vertex -3.23607 2.35114 2
    endloop
  endfacet
  facet normal -0 0 1
    outer loop
      vertex -3.91259 0.831646 2
      vertex -1.65098 0.717121 2
      vertex -3.65418 1.62695 2
    endloop
  endfacet
  facet normal 0 0 1
    outer loop
      vertex -1.03802 -1.47055 2
      vertex -2.67652 -2.97258 2
      vertex -2 -3.4641 2
    endloop
  endfacet
  facet normal 0 0 1
    outer loop
      vertex -1.65098 0.717121 2
      vertex -3.91259 0.831646 2
      vertex -1.78323 0.245099 2
    endloop
  endfacet
  facet normal 0 0 1
    outer loop
      vertex -1.39628 -1.13596 2
      vertex -3.23607 -2.35114 2
      vertex -2.67652 -2.97258 2
    endloop
  endfacet
  facet normal 0 0 1
    outer loop
      vertex -4 0 2
      vertex -1.78323 0.245099 2
      vertex -3.91259 0.831646 2
    endloop
  endfacet
  facet normal 0 0 1
    outer loop
      vertex -1.65098 -0.717121 2
      vertex -3.65418 -1.62695 2
      vertex -3.23607 -2.35114 2
    endloop
  endfacet
  facet normal 0 0 1
    outer loop
      vertex -1.78323 0.245099 2
      vertex -4 0 2
      vertex -1.78323 -0.245099 2
    endloop
  endfacet
  facet normal 0 0 1
    outer loop
      vertex -1.65098 -0.717121 2
      vertex -3.91259 -0.831646 2
      vertex -3.65418 -1.62695 2
    endloop
  endfacet
  facet normal 0 0 1
    outer loop
      vertex -1.78323 -0.245099 2
      vertex -4 0 2
      vertex -3.91259 -0.831646 2
    endloop
  endfacet
  facet normal 0.207909 -0.978148 0
    outer loop
      vertex 0.418114 -3.97809 0
      vertex 1.23607 -3.80423 2
      vertex 0.418114 -3.97809 2
    endloop
  endfacet
  facet normal 0.207909 -0.978148 0
    outer loop
      vertex 1.23607 -3.80423 2
      vertex 0.418114 -3.97809 0
      vertex 1.23607 -3.80423 0
    endloop
  endfacet
  facet normal -0.994522 -0.104529 0
    outer loop
      vertex -3.91259 -0.831646 0
      vertex -4 0 2
      vertex -4 0 0
    endloop
  endfacet
  facet normal -0.994522 -0.104529 0
    outer loop
      vertex -4 0 2
      vertex -3.91259 -0.831646 0
      vertex -3.91259 -0.831646 2
    endloop
  endfacet
  facet normal -0.866026 -0.499999 0
    outer loop
      vertex -3.23607 -2.35114 0
      vertex -3.65418 -1.62695 2
      vertex -3.65418 -1.62695 0
    endloop
  endfacet
  facet normal -0.866026 -0.499999 0
    outer loop
      vertex -3.65418 -1.62695 2
      vertex -3.23607 -2.35114 0
      vertex -3.23607 -2.35114 2
    endloop
  endfacet
  facet normal -0.866026 0.499999 0
    outer loop
      vertex -3.65418 1.62695 0
      vertex -3.23607 2.35114 2
      vertex -3.23607 2.35114 0
    endloop
  endfacet
  facet normal -0.866026 0.499999 0
    outer loop
      vertex -3.23607 2.35114 2
      vertex -3.65418 1.62695 0
      vertex -3.65418 1.62695 2
    endloop
  endfacet
  facet normal 0.866026 -0.499999 0
    outer loop
      vertex 3.23607 -2.35114 2
      vertex 3.65418 -1.62695 0
      vertex 3.65418 -1.62695 2
    endloop
  endfacet
  facet normal 0.866026 -0.499999 0
    outer loop
      vertex 3.65418 -1.62695 0
      vertex 3.23607 -2.35114 2
      vertex 3.23607 -2.35114 0
    endloop
  endfacet
  facet normal 0.406743 0.913543 -0
    outer loop
      vertex 2 3.4641 0
      vertex 1.23607 3.80423 2
      vertex 2 3.4641 2
    endloop
  endfacet
  facet normal 0.406743 0.913543 0
    outer loop
      vertex 1.23607 3.80423 2
      vertex 2 3.4641 0
      vertex 1.23607 3.80423 0
    endloop
  endfacet
  facet normal 0.207909 0.978148 -0
    outer loop
      vertex 1.23607 3.80423 0
      vertex 0.418114 3.97809 2
      vertex 1.23607 3.80423 2
    endloop
  endfacet
  facet normal 0.207909 0.978148 0
    outer loop
      vertex 0.418114 3.97809 2
      vertex 1.23607 3.80423 0
      vertex 0.418114 3.97809 0
    endloop
  endfacet
  facet normal 0.743143 -0.669133 0
    outer loop
      vertex 2.67652 -2.97258 2
      vertex 3.23607 -2.35114 0
      vertex 3.23607 -2.35114 2
    endloop
  endfacet
  facet normal 0.743143 -0.669133 0
    outer loop
      vertex 3.23607 -2.35114 0
      vertex 2.67652 -2.97258 2
      vertex 2.67652 -2.97258 0
    endloop
  endfacet
  facet normal 0 -1 0
    outer loop
      vertex -0.418114 -3.97809 0
      vertex 0.418114 -3.97809 2
      vertex -0.418114 -3.97809 2
    endloop
  endfacet
  facet normal 0 -1 -0
    outer loop
      vertex 0.418114 -3.97809 2
      vertex -0.418114 -3.97809 0
      vertex 0.418114 -3.97809 0
    endloop
  endfacet
  facet normal -0.994522 0.104529 0
    outer loop
      vertex -4 0 0
      vertex -3.91259 0.831646 2
      vertex -3.91259 0.831646 0
    endloop
  endfacet
  facet normal -0.994522 0.104529 0
    outer loop
      vertex -3.91259 0.831646 2
      vertex -4 0 0
      vertex -4 0 2
    endloop
  endfacet
  facet normal -0.917208 -0.398408 0
    outer loop
      vertex 1.73325 0.485634 0
      vertex 1.53795 0.93525 2
      vertex 1.53795 0.93525 0
    endloop
  endfacet
  facet normal -0.917208 -0.398408 0
    outer loop
      vertex 1.53795 0.93525 2
      vertex 1.73325 0.485634 0
      vertex 1.73325 0.485634 2
    endloop
  endfacet
  facet normal -0.990686 -0.136169 0
    outer loop
      vertex 1.8 0 0
      vertex 1.73325 0.485634 2
      vertex 1.73325 0.485634 0
    endloop
  endfacet
  facet normal -0.990686 -0.136169 0
    outer loop
      vertex 1.73325 0.485634 2
      vertex 1.8 0 0
      vertex 1.8 0 2
    endloop
  endfacet
  facet normal -0.990686 0.136169 0
    outer loop
      vertex 1.73325 -0.485634 0
      vertex 1.8 0 2
      vertex 1.8 0 0
    endloop
  endfacet
  facet normal -0.990686 0.136169 0
    outer loop
      vertex 1.8 0 2
      vertex 1.73325 -0.485634 0
      vertex 1.73325 -0.485634 2
    endloop
  endfacet
  facet normal 1 -0 0
    outer loop
      vertex -1.78323 -0.245099 2
      vertex -1.78323 0.245099 0
      vertex -1.78323 0.245099 2
    endloop
  endfacet
  facet normal 1 0 0
    outer loop
      vertex -1.78323 0.245099 0
      vertex -1.78323 -0.245099 2
      vertex -1.78323 -0.245099 0
    endloop
  endfacet
  facet normal -0.0682376 -0.997669 0
    outer loop
      vertex -0.122836 1.7958 0
      vertex 0.36622 1.76235 2
      vertex -0.122836 1.7958 2
    endloop
  endfacet
  facet normal -0.0682376 -0.997669 -0
    outer loop
      vertex 0.36622 1.76235 2
      vertex -0.122836 1.7958 0
      vertex 0.36622 1.76235 0
    endloop
  endfacet
  facet normal 0.854421 0.519582 0
    outer loop
      vertex -1.39628 -1.13596 2
      vertex -1.65098 -0.717121 0
      vertex -1.65098 -0.717121 2
    endloop
  endfacet
  facet normal 0.854421 0.519582 0
    outer loop
      vertex -1.65098 -0.717121 0
      vertex -1.39628 -1.13596 2
      vertex -1.39628 -1.13596 0
    endloop
  endfacet
  facet normal 0.203448 -0.979086 0
    outer loop
      vertex -0.602783 1.69607 0
      vertex -0.122836 1.7958 2
      vertex -0.602783 1.69607 2
    endloop
  endfacet
  facet normal 0.203448 -0.979086 0
    outer loop
      vertex -0.122836 1.7958 2
      vertex -0.602783 1.69607 0
      vertex -0.122836 1.7958 0
    endloop
  endfacet
  facet normal -0.917208 0.398408 0
    outer loop
      vertex 1.53795 -0.93525 0
      vertex 1.73325 -0.485634 2
      vertex 1.73325 -0.485634 0
    endloop
  endfacet
  facet normal -0.917208 0.398408 0
    outer loop
      vertex 1.73325 -0.485634 2
      vertex 1.53795 -0.93525 0
      vertex 1.53795 -0.93525 2
    endloop
  endfacet
  facet normal -0.334883 -0.94226 0
    outer loop
      vertex 0.36622 1.76235 0
      vertex 0.828116 1.59819 2
      vertex 0.36622 1.76235 2
    endloop
  endfacet
  facet normal -0.334883 -0.94226 -0
    outer loop
      vertex 0.828116 1.59819 2
      vertex 0.36622 1.76235 0
      vertex 0.828116 1.59819 0
    endloop
  endfacet
  facet normal 0.460062 0.887887 -0
    outer loop
      vertex -0.602783 -1.69607 0
      vertex -1.03802 -1.47055 2
      vertex -0.602783 -1.69607 2
    endloop
  endfacet
  facet normal 0.460062 0.887887 0
    outer loop
      vertex -1.03802 -1.47055 2
      vertex -0.602783 -1.69607 0
      vertex -1.03802 -1.47055 0
    endloop
  endfacet
  facet normal 0.682552 -0.730837 0
    outer loop
      vertex -1.39628 1.13596 0
      vertex -1.03802 1.47055 2
      vertex -1.39628 1.13596 2
    endloop
  endfacet
  facet normal 0.682552 -0.730837 0
    outer loop
      vertex -1.03802 1.47055 2
      vertex -1.39628 1.13596 0
      vertex -1.03802 1.47055 0
    endloop
  endfacet
  facet normal -0.775708 0.631092 0
    outer loop
      vertex 1.22859 -1.3155 0
      vertex 1.53795 -0.93525 2
      vertex 1.53795 -0.93525 0
    endloop
  endfacet
  facet normal -0.775708 0.631092 0
    outer loop
      vertex 1.53795 -0.93525 2
      vertex 1.22859 -1.3155 0
      vertex 1.22859 -1.3155 2
    endloop
  endfacet
  facet normal 0.96292 0.269789 0
    outer loop
      vertex -1.65098 -0.717121 2
      vertex -1.78323 -0.245099 0
      vertex -1.78323 -0.245099 2
    endloop
  endfacet
  facet normal 0.96292 0.269789 0
    outer loop
      vertex -1.78323 -0.245099 0
      vertex -1.65098 -0.717121 2
      vertex -1.65098 -0.717121 0
    endloop
  endfacet
  facet normal -0.334883 0.94226 0
    outer loop
      vertex 0.828116 -1.59819 0
      vertex 0.36622 -1.76235 2
      vertex 0.828116 -1.59819 2
    endloop
  endfacet
  facet normal -0.334883 0.94226 0
    outer loop
      vertex 0.36622 -1.76235 2
      vertex 0.828116 -1.59819 0
      vertex 0.36622 -1.76235 0
    endloop
  endfacet
  facet normal -0.576687 0.816965 0
    outer loop
      vertex 1.22859 -1.3155 0
      vertex 0.828116 -1.59819 2
      vertex 1.22859 -1.3155 2
    endloop
  endfacet
  facet normal -0.576687 0.816965 0
    outer loop
      vertex 0.828116 -1.59819 2
      vertex 1.22859 -1.3155 0
      vertex 0.828116 -1.59819 0
    endloop
  endfacet
  facet normal -0.0682376 0.997669 0
    outer loop
      vertex 0.36622 -1.76235 0
      vertex -0.122836 -1.7958 2
      vertex 0.36622 -1.76235 2
    endloop
  endfacet
  facet normal -0.0682376 0.997669 0
    outer loop
      vertex -0.122836 -1.7958 2
      vertex 0.36622 -1.76235 0
      vertex -0.122836 -1.7958 0
    endloop
  endfacet
  facet normal 0.682552 0.730837 -0
    outer loop
      vertex -1.03802 -1.47055 0
      vertex -1.39628 -1.13596 2
      vertex -1.03802 -1.47055 2
    endloop
  endfacet
  facet normal 0.682552 0.730837 0
    outer loop
      vertex -1.39628 -1.13596 2
      vertex -1.03802 -1.47055 0
      vertex -1.39628 -1.13596 0
    endloop
  endfacet
  facet normal 0.203448 0.979086 -0
    outer loop
      vertex -0.122836 -1.7958 0
      vertex -0.602783 -1.69607 2
      vertex -0.122836 -1.7958 2
    endloop
  endfacet
  facet normal 0.203448 0.979086 0
    outer loop
      vertex -0.602783 -1.69607 2
      vertex -0.122836 -1.7958 0
      vertex -0.602783 -1.69607 0
    endloop
  endfacet
  facet normal 0.460062 -0.887887 0
    outer loop
      vertex -1.03802 1.47055 0
      vertex -0.602783 1.69607 2
      vertex -1.03802 1.47055 2
    endloop
  endfacet
  facet normal 0.460062 -0.887887 0
    outer loop
      vertex -0.602783 1.69607 2
      vertex -1.03802 1.47055 0
      vertex -0.602783 1.69607 0
    endloop
  endfacet
  facet normal 0.96292 -0.269789 0
    outer loop
      vertex -1.78323 0.245099 2
      vertex -1.65098 0.717121 0
      vertex -1.65098 0.717121 2
    endloop
  endfacet
  facet normal 0.96292 -0.269789 0
    outer loop
      vertex -1.65098 0.717121 0
      vertex -1.78323 0.245099 2
      vertex -1.78323 0.245099 0
    endloop
  endfacet
  facet normal 0.854421 -0.519582 0
    outer loop
      vertex -1.65098 0.717121 2
      vertex -1.39628 1.13596 0
      vertex -1.39628 1.13596 2
    endloop
  endfacet
  facet normal 0.854421 -0.519582 0
    outer loop
      vertex -1.39628 1.13596 0
      vertex -1.65098 0.717121 2
      vertex -1.65098 0.717121 0
    endloop
  endfacet
  facet normal -0.775708 -0.631092 0
    outer loop
      vertex 1.53795 0.93525 0
      vertex 1.22859 1.3155 2
      vertex 1.22859 1.3155 0
    endloop
  endfacet
  facet normal -0.775708 -0.631092 0
    outer loop
      vertex 1.22859 1.3155 2
      vertex 1.53795 0.93525 0
      vertex 1.53795 0.93525 2
    endloop
  endfacet
  facet normal -0.576687 -0.816965 0
    outer loop
      vertex 0.828116 1.59819 0
      vertex 1.22859 1.3155 2
      vertex 0.828116 1.59819 2
    endloop
  endfacet
  facet normal -0.576687 -0.816965 -0
    outer loop
      vertex 1.22859 1.3155 2
      vertex 0.828116 1.59819 0
      vertex 1.22859 1.3155 0
    endloop
  endfacet
endsolid OpenSCAD_Model
